<mxfile host="65bd71144e">
    <diagram id="WkI1zWhz7pDS6HisX2yY" name="Page-1">
        <mxGraphModel dx="150" dy="248" grid="1" gridSize="10" guides="1" tooltips="1" connect="1" arrows="1" fold="1" page="1" pageScale="1" pageWidth="850" pageHeight="1100" math="0" shadow="0">
            <root>
                <mxCell id="0"/>
                <mxCell id="1" parent="0"/>
                <mxCell id="4" value="User Stories" style="rounded=0;whiteSpace=wrap;html=1;align=left;verticalAlign=top;fillColor=#CCCCCC;fontColor=#333333;strokeColor=#666666;fontSize=16;" vertex="1" parent="1">
                    <mxGeometry x="70" y="330" width="1980" height="1770" as="geometry"/>
                </mxCell>
                <mxCell id="5" value="Release 6" style="rounded=0;whiteSpace=wrap;html=1;horizontal=0;align=center;verticalAlign=top;fillColor=none;dashed=1;strokeWidth=0;strokeColor=#000000;fontColor=#000000;fontSize=15;" vertex="1" parent="1">
                    <mxGeometry x="70" y="1840" width="1980" height="260" as="geometry"/>
                </mxCell>
                <mxCell id="6" value="Release 5" style="rounded=0;whiteSpace=wrap;html=1;horizontal=0;align=center;verticalAlign=top;fillColor=none;dashed=1;strokeWidth=0;strokeColor=#000000;fontColor=#000000;fontSize=15;" vertex="1" parent="1">
                    <mxGeometry x="70" y="1630" width="1980" height="210" as="geometry"/>
                </mxCell>
                <mxCell id="7" value="Release 4" style="rounded=0;whiteSpace=wrap;html=1;horizontal=0;align=center;verticalAlign=top;fillColor=none;dashed=1;strokeWidth=0;strokeColor=#000000;fontColor=#000000;fontSize=15;" vertex="1" parent="1">
                    <mxGeometry x="70" y="1420" width="1980" height="210" as="geometry"/>
                </mxCell>
                <mxCell id="8" value="Release 3" style="rounded=0;whiteSpace=wrap;html=1;horizontal=0;align=center;verticalAlign=top;fillColor=none;dashed=1;strokeWidth=0;strokeColor=#000000;fontColor=#000000;fontSize=15;" vertex="1" parent="1">
                    <mxGeometry x="70" y="1210" width="1980" height="210" as="geometry"/>
                </mxCell>
                <mxCell id="9" value="Activities" style="rounded=0;whiteSpace=wrap;html=1;align=left;verticalAlign=top;fillColor=#FFFFFF;fontColor=#000000;fontSize=16;strokeColor=#000000;" vertex="1" parent="1">
                    <mxGeometry x="70" y="110" width="1980" height="110" as="geometry"/>
                </mxCell>
                <mxCell id="10" value="Epics" style="rounded=0;whiteSpace=wrap;html=1;align=left;verticalAlign=top;fillColor=#FFFFFF;fontColor=#000000;fontSize=16;strokeColor=#000000;" vertex="1" parent="1">
                    <mxGeometry x="70" y="220" width="1980" height="110" as="geometry"/>
                </mxCell>
                <mxCell id="11" value="Release 1" style="rounded=0;whiteSpace=wrap;html=1;horizontal=0;align=center;verticalAlign=top;fillColor=none;dashed=1;strokeWidth=0;strokeColor=#000000;fontColor=#000000;fontSize=15;" vertex="1" parent="1">
                    <mxGeometry x="70" y="360" width="1980" height="500" as="geometry"/>
                </mxCell>
                <mxCell id="12" value="Create a jobSearchingProcess" style="rounded=0;whiteSpace=wrap;html=1;fillColor=#99CCFF;strokeColor=#000000;fontColor=#000000;" vertex="1" parent="1">
                    <mxGeometry x="150" y="140" width="120" height="60" as="geometry"/>
                </mxCell>
                <mxCell id="13" value="Update the jobSearchingProcess" style="rounded=0;whiteSpace=wrap;html=1;fillColor=#99CCFF;strokeColor=#000000;fontColor=#000000;" vertex="1" parent="1">
                    <mxGeometry x="310" y="140" width="120" height="60" as="geometry"/>
                </mxCell>
                <mxCell id="14" value="Create a vacancy" style="rounded=0;whiteSpace=wrap;html=1;fillColor=#99CCFF;strokeColor=#000000;fontColor=#000000;" vertex="1" parent="1">
                    <mxGeometry x="470" y="140" width="120" height="60" as="geometry"/>
                </mxCell>
                <mxCell id="15" value="Update the vacancy" style="rounded=0;whiteSpace=wrap;html=1;fillColor=#99CCFF;strokeColor=#000000;fontColor=#000000;" vertex="1" parent="1">
                    <mxGeometry x="630" y="140" width="120" height="60" as="geometry"/>
                </mxCell>
                <mxCell id="16" value="Delete the vacancy" style="rounded=0;whiteSpace=wrap;html=1;fillColor=#99CCFF;strokeColor=#000000;fontColor=#000000;" vertex="1" parent="1">
                    <mxGeometry x="790" y="140" width="120" height="60" as="geometry"/>
                </mxCell>
                <mxCell id="17" value="Manage files" style="rounded=0;whiteSpace=wrap;html=1;fillColor=#99CCFF;strokeColor=#000000;fontColor=#000000;" vertex="1" parent="1">
                    <mxGeometry x="950" y="140" width="120" height="60" as="geometry"/>
                </mxCell>
                <mxCell id="18" value="Sign in" style="rounded=0;whiteSpace=wrap;html=1;fillColor=#99CCFF;strokeColor=#000000;fontColor=#000000;" vertex="1" parent="1">
                    <mxGeometry x="1110" y="140" width="120" height="60" as="geometry"/>
                </mxCell>
                <mxCell id="19" value="Log in" style="rounded=0;whiteSpace=wrap;html=1;fillColor=#99CCFF;strokeColor=#000000;fontColor=#000000;" vertex="1" parent="1">
                    <mxGeometry x="1270" y="140" width="120" height="60" as="geometry"/>
                </mxCell>
                <mxCell id="20" value="Import vacancy" style="rounded=0;whiteSpace=wrap;html=1;fillColor=#99CCFF;strokeColor=#000000;fontColor=#000000;" vertex="1" parent="1">
                    <mxGeometry x="1430" y="140" width="120" height="60" as="geometry"/>
                </mxCell>
                <mxCell id="21" value="Import contacts and messages" style="rounded=0;whiteSpace=wrap;html=1;fillColor=#99CCFF;strokeColor=#000000;fontColor=#000000;" vertex="1" parent="1">
                    <mxGeometry x="1590" y="140" width="120" height="60" as="geometry"/>
                </mxCell>
                <mxCell id="22" value="Import CV" style="rounded=0;whiteSpace=wrap;html=1;fillColor=#99CCFF;strokeColor=#000000;fontColor=#000000;" vertex="1" parent="1">
                    <mxGeometry x="1750" y="140" width="120" height="60" as="geometry"/>
                </mxCell>
                <mxCell id="23" value="&lt;font style=&quot;font-size: 10px;&quot;&gt;As a user I want to create a jobSearchingProcess to focus on my preferences&lt;/font&gt;" style="rounded=0;whiteSpace=wrap;html=1;fillColor=#CCFFE6;fontColor=#000000;strokeColor=#000000;" vertex="1" parent="1">
                    <mxGeometry x="150" y="380" width="120" height="60" as="geometry"/>
                </mxCell>
                <mxCell id="24" value="&lt;span style=&quot;font-size: 10px;&quot;&gt;As a user I want to u&lt;/span&gt;&lt;font style=&quot;font-size: 10px;&quot;&gt;pdate the jobSearchingProcess atributes to keep it valueable&lt;/font&gt;" style="rounded=0;whiteSpace=wrap;html=1;fillColor=#CCFFE6;fontColor=#000000;strokeColor=#000000;" vertex="1" parent="1">
                    <mxGeometry x="310" y="380" width="120" height="60" as="geometry"/>
                </mxCell>
                <mxCell id="25" value="As a user I want to&amp;nbsp;archive the jobSearchingProcess to hide it" style="rounded=0;whiteSpace=wrap;html=1;fontSize=10;fillColor=#CCFFE6;fontColor=#000000;strokeColor=#000000;" vertex="1" parent="1">
                    <mxGeometry x="310" y="460" width="120" height="60" as="geometry"/>
                </mxCell>
                <mxCell id="26" value="As a user I want to create a vacancy in jobSearchingProcess to track application process" style="rounded=0;whiteSpace=wrap;html=1;fontSize=10;fillColor=#CCFFE6;fontColor=#000000;strokeColor=#000000;" vertex="1" parent="1">
                    <mxGeometry x="470" y="380" width="120" height="60" as="geometry"/>
                </mxCell>
                <mxCell id="27" value="As a user I want to update applicationStages to make it consistent with the specific application process of the employer" style="rounded=0;whiteSpace=wrap;html=1;fontSize=10;fillColor=#CCFFE6;fontColor=#000000;strokeColor=#000000;" vertex="1" parent="1">
                    <mxGeometry x="630" y="380" width="120" height="60" as="geometry"/>
                </mxCell>
                <mxCell id="28" value="As a user I want to&amp;nbsp;employer to correct mistakes or misunderstandings" style="rounded=0;whiteSpace=wrap;html=1;fontSize=10;fillColor=#CCFFE6;fontColor=#000000;strokeColor=#000000;" vertex="1" parent="1">
                    <mxGeometry x="630" y="460" width="120" height="60" as="geometry"/>
                </mxCell>
                <mxCell id="29" value="As a user I want to update HRManagers to communciate with neccessary person" style="rounded=0;whiteSpace=wrap;html=1;fontSize=10;fillColor=#CCFFE6;fontColor=#000000;strokeColor=#000000;" vertex="1" parent="1">
                    <mxGeometry x="630" y="540" width="120" height="60" as="geometry"/>
                </mxCell>
                <mxCell id="30" value="As a user I want to update HRManager's contacts to reach HRManager" style="rounded=0;whiteSpace=wrap;html=1;fontSize=10;fillColor=#CCFFE6;fontColor=#000000;strokeColor=#000000;" vertex="1" parent="1">
                    <mxGeometry x="630" y="620" width="120" height="60" as="geometry"/>
                </mxCell>
                <mxCell id="31" value="As a user I want to&amp;nbsp;delete the vacancy to avoid unsuitable vacancies" style="rounded=0;whiteSpace=wrap;html=1;fontSize=10;fillColor=#CCFFE6;fontColor=#000000;strokeColor=#000000;" vertex="1" parent="1">
                    <mxGeometry x="790" y="380" width="120" height="60" as="geometry"/>
                </mxCell>
                <mxCell id="32" value="As a user I want to update vacancy status to understand my progress in applying" style="rounded=0;whiteSpace=wrap;html=1;fontSize=10;fillColor=#CCFFE6;fontColor=#000000;strokeColor=#000000;" vertex="1" parent="1">
                    <mxGeometry x="630" y="700" width="120" height="60" as="geometry"/>
                </mxCell>
                <mxCell id="33" value="As a user I want to&amp;nbsp;update offer to see a result of application" style="rounded=0;whiteSpace=wrap;html=1;fontSize=10;fillColor=#CCFFE6;fontColor=#000000;strokeColor=#000000;" vertex="1" parent="1">
                    <mxGeometry x="630" y="780" width="120" height="60" as="geometry"/>
                </mxCell>
                <mxCell id="34" value="Release 2" style="rounded=0;whiteSpace=wrap;html=1;horizontal=0;align=center;verticalAlign=top;fillColor=none;dashed=1;strokeWidth=0;strokeColor=#000000;fontColor=#000000;fontSize=15;" vertex="1" parent="1">
                    <mxGeometry x="70" y="860" width="1980" height="350" as="geometry"/>
                </mxCell>
                <mxCell id="35" value="" style="endArrow=none;dashed=1;html=1;rounded=0;entryX=0.114;entryY=0.045;entryDx=0;entryDy=0;entryPerimeter=0;strokeColor=#000000;" edge="1" parent="1">
                    <mxGeometry width="50" height="50" relative="1" as="geometry">
                        <mxPoint x="290" y="2110" as="sourcePoint"/>
                        <mxPoint x="290.02" y="110.00000000000004" as="targetPoint"/>
                    </mxGeometry>
                </mxCell>
                <mxCell id="36" value="" style="endArrow=none;dashed=1;html=1;rounded=0;strokeColor=#000000;" edge="1" parent="1">
                    <mxGeometry width="50" height="50" relative="1" as="geometry">
                        <mxPoint x="450" y="2110" as="sourcePoint"/>
                        <mxPoint x="450" y="110" as="targetPoint"/>
                    </mxGeometry>
                </mxCell>
                <mxCell id="37" value="" style="endArrow=none;dashed=1;html=1;rounded=0;strokeColor=#000000;" edge="1" parent="1">
                    <mxGeometry width="50" height="50" relative="1" as="geometry">
                        <mxPoint x="610" y="2110" as="sourcePoint"/>
                        <mxPoint x="610" y="110" as="targetPoint"/>
                    </mxGeometry>
                </mxCell>
                <mxCell id="38" value="" style="endArrow=none;dashed=1;html=1;rounded=0;strokeColor=#000000;" edge="1" parent="1">
                    <mxGeometry width="50" height="50" relative="1" as="geometry">
                        <mxPoint x="770" y="2110" as="sourcePoint"/>
                        <mxPoint x="770" y="110" as="targetPoint"/>
                    </mxGeometry>
                </mxCell>
                <mxCell id="39" value="" style="endArrow=none;dashed=1;html=1;rounded=0;strokeColor=#000000;" edge="1" parent="1">
                    <mxGeometry width="50" height="50" relative="1" as="geometry">
                        <mxPoint x="930" y="2110" as="sourcePoint"/>
                        <mxPoint x="930" y="110" as="targetPoint"/>
                    </mxGeometry>
                </mxCell>
                <mxCell id="40" value="" style="endArrow=none;dashed=1;html=1;rounded=0;strokeColor=#000000;" edge="1" parent="1">
                    <mxGeometry width="50" height="50" relative="1" as="geometry">
                        <mxPoint x="1090" y="2110" as="sourcePoint"/>
                        <mxPoint x="1090" y="110" as="targetPoint"/>
                    </mxGeometry>
                </mxCell>
                <mxCell id="41" value="" style="endArrow=none;dashed=1;html=1;rounded=0;strokeColor=#000000;" edge="1" parent="1">
                    <mxGeometry width="50" height="50" relative="1" as="geometry">
                        <mxPoint x="1250" y="2110" as="sourcePoint"/>
                        <mxPoint x="1250" y="110" as="targetPoint"/>
                    </mxGeometry>
                </mxCell>
                <mxCell id="42" value="" style="endArrow=none;dashed=1;html=1;rounded=0;strokeColor=#000000;" edge="1" parent="1">
                    <mxGeometry width="50" height="50" relative="1" as="geometry">
                        <mxPoint x="1410" y="2110" as="sourcePoint"/>
                        <mxPoint x="1410" y="110" as="targetPoint"/>
                    </mxGeometry>
                </mxCell>
                <mxCell id="43" value="" style="endArrow=none;dashed=1;html=1;rounded=0;strokeColor=#000000;" edge="1" parent="1">
                    <mxGeometry width="50" height="50" relative="1" as="geometry">
                        <mxPoint x="1570" y="2100" as="sourcePoint"/>
                        <mxPoint x="1570" y="110" as="targetPoint"/>
                    </mxGeometry>
                </mxCell>
                <mxCell id="44" value="" style="endArrow=none;dashed=1;html=1;rounded=0;strokeColor=#000000;exitX=0.838;exitY=1.027;exitDx=0;exitDy=0;exitPerimeter=0;" edge="1" parent="1" source="5">
                    <mxGeometry width="50" height="50" relative="1" as="geometry">
                        <mxPoint x="1730" y="1970" as="sourcePoint"/>
                        <mxPoint x="1730" y="110" as="targetPoint"/>
                    </mxGeometry>
                </mxCell>
                <mxCell id="45" value="As a user I want to upload file and connect it to the vacancy to save important information" style="rounded=0;whiteSpace=wrap;html=1;fontSize=10;fillColor=#CCFFE6;fontColor=#000000;strokeColor=#000000;" vertex="1" parent="1">
                    <mxGeometry x="950" y="890" width="120" height="60" as="geometry"/>
                </mxCell>
                <mxCell id="46" value="As a user I want to dowload the existing file to get important information" style="rounded=0;whiteSpace=wrap;html=1;fontSize=10;fillColor=#CCFFE6;fontColor=#000000;strokeColor=#000000;" vertex="1" parent="1">
                    <mxGeometry x="950" y="970" width="120" height="60" as="geometry"/>
                </mxCell>
                <mxCell id="47" value="As a user I want to&amp;nbsp;create/delete/update an employer separately from vacancies to keep my employers catalog" style="rounded=0;whiteSpace=wrap;html=1;fontSize=10;fillColor=#CCFFE6;fontColor=#000000;strokeColor=#000000;" vertex="1" parent="1">
                    <mxGeometry x="630" y="890" width="120" height="60" as="geometry"/>
                </mxCell>
                <mxCell id="48" value="As a user I want to update the vacancy with an employer chosen from a list to select employer quikly&amp;nbsp;" style="rounded=0;whiteSpace=wrap;html=1;fontSize=10;fillColor=#CCFFE6;fontColor=#000000;strokeColor=#000000;" vertex="1" parent="1">
                    <mxGeometry x="630" y="970" width="120" height="60" as="geometry"/>
                </mxCell>
                <mxCell id="49" value="As a user I want to&amp;nbsp;sign in to create an account in the System" style="rounded=0;whiteSpace=wrap;html=1;fontSize=10;fillColor=#CCFFE6;fontColor=#000000;strokeColor=#000000;" vertex="1" parent="1">
                    <mxGeometry x="1110" y="1240" width="120" height="60" as="geometry"/>
                </mxCell>
                <mxCell id="50" value="As a user I want to&amp;nbsp;sign in&amp;nbsp; using Google account to use the System without additional registration" style="rounded=0;whiteSpace=wrap;html=1;fontSize=10;fillColor=#CCFFE6;fontColor=#000000;strokeColor=#000000;" vertex="1" parent="1">
                    <mxGeometry x="1110" y="1319" width="120" height="60" as="geometry"/>
                </mxCell>
                <mxCell id="51" value="As a user I want to&amp;nbsp;log in the System to use System functions" style="rounded=0;whiteSpace=wrap;html=1;fontSize=10;fillColor=#CCFFE6;fontColor=#000000;strokeColor=#000000;" vertex="1" parent="1">
                    <mxGeometry x="1270" y="1240" width="120" height="60" as="geometry"/>
                </mxCell>
                <mxCell id="52" value="As a user I want to&amp;nbsp;log in the System with Google account to use System functions" style="rounded=0;whiteSpace=wrap;html=1;fontSize=10;fillColor=#CCFFE6;fontColor=#000000;strokeColor=#000000;" vertex="1" parent="1">
                    <mxGeometry x="1270" y="1319" width="120" height="60" as="geometry"/>
                </mxCell>
                <mxCell id="53" value="As a user I want to import vacancy from external source using a link to save time on vacancy creation" style="rounded=0;whiteSpace=wrap;html=1;fontSize=10;fillColor=#CCFFE6;fontColor=#000000;strokeColor=#000000;" vertex="1" parent="1">
                    <mxGeometry x="1430" y="1440" width="120" height="60" as="geometry"/>
                </mxCell>
                <mxCell id="54" value="As a user I want to import messages from external source (telegram, whatap) to track communcation with HRManagers" style="rounded=0;whiteSpace=wrap;html=1;fontSize=10;fillColor=#CCFFE6;fontColor=#000000;strokeColor=#000000;" vertex="1" parent="1">
                    <mxGeometry x="1590" y="1650" width="120" height="60" as="geometry"/>
                </mxCell>
                <mxCell id="55" value="As a user I want to import my CV from external source (f.e. linkedIn) to store my skills in the System" style="rounded=0;whiteSpace=wrap;html=1;fontSize=10;fillColor=#CCFFE6;fontColor=#000000;strokeColor=#000000;" vertex="1" parent="1">
                    <mxGeometry x="1750" y="1650" width="120" height="60" as="geometry"/>
                </mxCell>
                <mxCell id="56" value="" style="endArrow=none;dashed=1;html=1;rounded=0;strokeColor=#000000;" edge="1" parent="1">
                    <mxGeometry width="50" height="50" relative="1" as="geometry">
                        <mxPoint x="1890" y="2100" as="sourcePoint"/>
                        <mxPoint x="1890" y="110" as="targetPoint"/>
                    </mxGeometry>
                </mxCell>
                <mxCell id="57" value="Analyse&amp;nbsp;" style="rounded=0;whiteSpace=wrap;html=1;strokeColor=#000000;fillColor=#99CCFF;fontColor=#000000;" vertex="1" parent="1">
                    <mxGeometry x="1910" y="140" width="120" height="60" as="geometry"/>
                </mxCell>
                <mxCell id="58" value="As a user I want to compare vacancies' requirements and my skills to choose the most suitable vacancy and improve my skills" style="rounded=0;whiteSpace=wrap;html=1;fontSize=10;fillColor=#CCFFE6;fontColor=#000000;strokeColor=#000000;" vertex="1" parent="1">
                    <mxGeometry x="1910" y="1860" width="120" height="80" as="geometry"/>
                </mxCell>
                <mxCell id="59" value="As a user I want to compare offers to choose the best one" style="rounded=0;whiteSpace=wrap;html=1;fontSize=10;fillColor=#CCFFE6;fontColor=#000000;strokeColor=#000000;" vertex="1" parent="1">
                    <mxGeometry x="1910" y="1950" width="120" height="60" as="geometry"/>
                </mxCell>
                <mxCell id="60" value="As a user I want to compare vacancies to choose the most interesting" style="rounded=0;whiteSpace=wrap;html=1;fontSize=10;fillColor=#CCFFE6;fontColor=#000000;strokeColor=#000000;" vertex="1" parent="1">
                    <mxGeometry x="1910" y="2020" width="120" height="60" as="geometry"/>
                </mxCell>
                <mxCell id="61" value="As a user I want to import contacts from android phone to keep HRManagers' contacts consistent" style="rounded=0;whiteSpace=wrap;html=1;fontSize=10;fillColor=#CCFFE6;fontColor=#000000;strokeColor=#000000;" vertex="1" parent="1">
                    <mxGeometry x="1590" y="1730" width="120" height="60" as="geometry"/>
                </mxCell>
                <mxCell id="62" value="As a user I want to update the vacancy with an HRManager chosen from a list to select HRManager quikly&amp;nbsp;" style="rounded=0;whiteSpace=wrap;html=1;fontSize=10;fillColor=#CCFFE6;fontColor=#000000;strokeColor=#000000;" vertex="1" parent="1">
                    <mxGeometry x="630" y="1050" width="120" height="60" as="geometry"/>
                </mxCell>
                <mxCell id="63" value="As a user I want to manage HRManager s of employer to have a consistent list of HRManagers&amp;nbsp;" style="rounded=0;whiteSpace=wrap;html=1;fontSize=10;fillColor=#CCFFE6;fontColor=#000000;strokeColor=#000000;" vertex="1" parent="1">
                    <mxGeometry x="630" y="1130" width="120" height="60" as="geometry"/>
                </mxCell>
            </root>
        </mxGraphModel>
    </diagram>
</mxfile>